<?xml version="1.0" standalone="no"?>
<!DOCTYPE svg PUBLIC "-//W3C//DTD SVG 20010904//EN"
 "http://www.w3.org/TR/2001/REC-SVG-20010904/DTD/svg10.dtd">
<svg version="1.0" xmlns="http://www.w3.org/2000/svg"
 width="833.000000pt" height="661.000000pt" viewBox="0 0 833.000000 661.000000"
 preserveAspectRatio="xMidYMid meet">

<g transform="translate(0.000000,661.000000) scale(0.100000,-0.100000)"
fill="#000000" stroke="none">
<path d="M4110 6384 c-32 -98 -77 -201 -115 -259 -43 -67 -131 -162 -168 -182
l-31 -15 26 -14 c51 -27 57 -105 15 -214 -11 -30 -51 -116 -88 -191 -180 -361
-299 -724 -299 -907 0 -51 -7 -75 -44 -151 -52 -107 -83 -235 -92 -376 -6 -91
-7 -98 -21 -80 -32 42 -56 112 -61 178 -4 62 -6 66 -19 47 -23 -32 -70 -154
-78 -198 -17 -100 -10 -143 43 -267 59 -139 89 -274 78 -349 -4 -26 -10 -46
-12 -43 -3 3 -16 49 -29 103 -29 114 -88 226 -152 285 -23 21 -47 39 -52 39
-5 0 -24 -37 -42 -82 -30 -74 -34 -94 -34 -183 -1 -91 -5 -109 -39 -194 -40
-102 -68 -152 -189 -336 -88 -133 -118 -189 -154 -284 -18 -47 -38 -78 -78
-118 -30 -29 -57 -65 -61 -81 -14 -65 -17 -66 -56 -14 -148 193 -385 361 -533
378 -56 6 -63 4 -93 -21 -34 -28 -49 -77 -38 -121 6 -23 11 -26 37 -20 42 8
76 -12 139 -81 63 -69 109 -161 178 -363 146 -421 215 -545 417 -744 133 -131
251 -212 450 -311 180 -88 316 -142 505 -199 117 -35 352 -96 367 -95 4 0 -54
22 -129 49 -375 132 -695 377 -803 613 -40 87 -55 163 -55 280 0 132 27 278
74 395 18 45 32 82 31 82 -8 0 -65 -103 -83 -150 -85 -220 -84 -480 2 -665 39
-83 131 -202 187 -241 39 -26 50 -44 28 -44 -20 0 -192 101 -269 159 -171 127
-299 273 -404 459 -61 108 -95 191 -167 399 -57 166 -99 263 -135 310 -27 36
-25 55 4 37 34 -22 197 -211 248 -289 70 -108 146 -262 185 -376 18 -52 35
-97 39 -102 8 -9 60 139 60 170 0 30 -41 142 -95 258 -25 53 -45 108 -45 123
0 34 32 99 45 92 5 -3 17 -27 26 -54 45 -131 175 -167 267 -75 22 23 46 55 53
70 7 19 21 31 38 35 14 3 33 9 41 13 25 13 60 72 60 102 0 26 -3 29 -33 29
-18 0 -71 16 -117 35 -47 19 -100 35 -119 35 -31 0 -33 2 -27 28 13 53 74 169
155 292 100 154 187 321 202 389 6 28 15 49 20 46 18 -12 59 -167 59 -224 0
-122 -62 -231 -173 -302 -79 -51 -79 -52 -23 -35 68 21 152 74 197 125 47 52
103 163 123 241 7 30 23 71 34 90 45 78 53 132 52 364 0 205 1 224 26 314 24
89 76 228 111 296 l15 29 38 -71 c20 -39 50 -88 65 -109 34 -46 117 -133 126
-133 4 0 -14 42 -40 94 -52 101 -87 215 -97 314 l-7 62 181 272 c198 301 235
368 280 508 49 152 58 250 35 390 -5 33 -6 31 -24 -38 -31 -121 -104 -232
-193 -293 l-36 -24 0 -83 c0 -84 0 -84 -57 -180 -113 -193 -173 -276 -173
-241 0 32 53 208 84 278 18 42 70 139 115 216 162 277 268 508 316 688 14 49
26 92 29 94 3 3 10 -15 16 -38 59 -237 129 -395 323 -734 107 -187 143 -264
171 -370 39 -147 40 -151 22 -136 -19 16 -68 89 -152 228 l-64 106 0 86 -1 86
-45 35 c-87 67 -166 194 -179 285 -7 46 -24 93 -25 70 0 -5 -5 -55 -10 -110
-11 -124 5 -225 56 -364 48 -127 67 -161 272 -469 l174 -263 -12 -82 c-15
-104 -50 -209 -106 -315 -42 -81 -43 -82 -15 -63 58 42 159 179 195 266 l17
39 19 -29 c24 -36 92 -210 117 -297 15 -52 18 -105 18 -308 1 -226 2 -249 22
-303 12 -32 31 -70 41 -85 11 -15 22 -45 26 -67 12 -66 79 -196 130 -252 32
-36 71 -64 121 -89 83 -41 122 -42 53 -1 -62 36 -134 120 -158 185 -33 87 -21
223 26 315 l20 39 12 -50 c19 -85 89 -220 215 -416 65 -102 147 -260 147 -285
0 -6 -15 -11 -33 -11 -17 0 -72 -16 -121 -35 -49 -19 -102 -35 -118 -35 -23 0
-28 -4 -28 -25 0 -60 48 -115 101 -115 12 0 23 -10 29 -26 30 -77 107 -134
182 -134 34 0 52 7 82 32 40 33 75 96 76 136 0 28 11 28 36 1 36 -40 26 -109
-33 -234 -60 -127 -83 -187 -83 -222 0 -28 51 -186 57 -179 3 3 18 44 34 92
36 105 127 287 207 409 63 98 230 281 250 274 9 -3 4 -15 -14 -39 -40 -53 -77
-140 -144 -337 -127 -371 -264 -588 -499 -783 -88 -74 -318 -216 -330 -204 -3
3 22 31 55 62 80 74 157 194 191 296 26 75 27 93 27 241 -1 177 -17 263 -73
380 -48 100 -63 108 -30 15 53 -146 72 -267 66 -405 -9 -204 -67 -323 -241
-495 -183 -181 -432 -321 -713 -400 -46 -13 -81 -25 -79 -27 5 -6 134 24 276
64 552 154 873 319 1128 583 160 165 249 324 357 642 76 223 135 351 194 426
48 60 109 94 152 85 24 -4 28 -1 34 26 9 44 -2 85 -31 112 -21 20 -36 24 -89
24 -55 0 -74 -6 -158 -48 -121 -62 -240 -157 -341 -275 l-79 -92 -29 60 c-17
36 -45 73 -68 91 -28 23 -44 47 -56 83 -27 82 -86 191 -184 341 -160 246 -213
375 -209 515 2 67 -2 84 -36 163 l-38 89 -47 -47 c-25 -25 -65 -79 -88 -120
-37 -63 -53 -111 -86 -248 -11 -46 -26 -20 -26 44 0 92 27 202 81 334 42 101
49 129 49 185 0 78 -20 153 -63 235 l-32 59 -6 -70 c-7 -70 -39 -163 -65 -185
-18 -15 -22 8 -27 146 -3 91 -10 127 -36 205 -18 52 -45 119 -62 149 -23 44
-29 67 -29 117 0 80 -23 200 -66 340 -50 166 -102 292 -226 547 -108 222 -112
230 -116 308 -4 67 -2 83 13 99 10 11 24 20 30 20 7 0 -24 37 -69 83 -92 93
-149 185 -212 346 l-41 104 -23 -69z m-1356 -3894 c60 -27 65 -32 56 -50 -24
-45 -70 -48 -107 -7 -23 24 -41 87 -25 87 5 0 39 -14 76 -30z m2840 3 c-11
-49 -38 -78 -77 -81 -29 -3 -39 2 -53 23 -9 14 -15 27 -13 29 7 8 124 54 137
55 8 1 10 -8 6 -26z"/>
<path d="M3762 4615 c-4 -113 -79 -201 -124 -145 l-18 22 0 -41 c0 -36 3 -41
27 -47 14 -4 33 -2 42 3 47 29 87 141 78 220 -3 34 -4 32 -5 -12z"/>
<path d="M4501 4594 c-2 -46 26 -129 55 -164 44 -51 94 -36 94 29 0 35 0 35
-16 13 -40 -57 -108 11 -127 128 -4 22 -4 21 -6 -6z"/>
<path d="M3447 4113 c-8 -13 -47 -144 -47 -157 0 -10 139 -61 146 -53 2 1 17
40 33 85 l31 83 -43 19 c-52 23 -113 35 -120 23z"/>
<path d="M4713 4094 c-29 -13 -53 -27 -53 -31 0 -5 14 -43 31 -86 23 -55 36
-77 46 -73 7 3 39 13 71 22 31 9 59 18 61 20 2 2 -9 42 -24 89 -26 78 -31 85
-54 84 -14 0 -50 -11 -78 -25z"/>
<path d="M3414 3764 l0 -135 18 47 c20 51 43 198 33 214 -4 6 -16 10 -28 10
-22 0 -22 -3 -23 -136z"/>
<path d="M4810 3885 c-9 -11 -10 -33 -1 -93 9 -70 47 -199 56 -190 2 2 -1 24
-6 50 -6 26 -9 92 -7 147 3 88 1 101 -13 101 -9 0 -22 -7 -29 -15z"/>
<path d="M3067 3155 c-13 -80 -82 -125 -98 -65 l-6 25 -7 -26 c-14 -50 -4 -74
31 -77 27 -3 35 2 57 35 14 21 28 61 32 91 7 58 0 72 -9 17z"/>
<path d="M5191 3174 c0 -11 3 -14 6 -6 3 7 2 16 -1 19 -3 4 -6 -2 -5 -13z"/>
<path d="M5204 3106 c6 -49 29 -84 61 -92 43 -11 71 35 46 74 -6 10 -10 9 -14
-7 -11 -43 -63 -15 -91 49 -3 8 -4 -2 -2 -24z"/>
<path d="M2566 2859 c-39 -59 -113 -127 -153 -140 -28 -9 -38 -8 -58 5 -31 20
-32 45 -3 81 l21 27 -24 -7 c-13 -4 -40 -19 -59 -35 -44 -34 -54 -94 -20 -125
31 -28 112 -23 153 8 65 50 118 115 166 205 19 36 6 25 -23 -19z"/>
<path d="M5680 2884 c0 -13 54 -99 88 -139 13 -16 45 -45 70 -62 82 -59 182
-39 182 36 0 36 -34 79 -76 97 -46 19 -48 18 -23 -15 37 -50 4 -97 -56 -80
-36 10 -140 100 -166 144 -11 16 -19 25 -19 19z"/>
<path d="M2915 2796 c-8 -20 -22 -52 -30 -73 -8 -20 -14 -38 -11 -40 2 -2 28
-8 57 -13 30 -5 63 -12 75 -15 19 -6 24 2 48 66 15 39 25 72 24 73 -22 13 -65
26 -102 31 -46 7 -46 7 -61 -29z"/>
<path d="M5285 2826 c-5 -2 -29 -9 -52 -16 -24 -7 -43 -16 -43 -19 0 -18 53
-141 62 -141 5 0 19 5 30 11 12 7 43 14 69 18 l47 6 -27 70 c-22 59 -30 70
-51 72 -14 1 -29 0 -35 -1z"/>
<path d="M6406 2567 c-30 -68 -53 -141 -61 -194 -6 -39 -5 -43 13 -43 11 0 27
-3 36 -6 14 -5 16 5 16 77 1 46 7 114 14 152 7 37 11 67 9 67 -2 0 -14 -24
-27 -53z"/>
<path d="M1845 2580 c4 -14 9 -77 12 -140 l5 -116 34 4 c34 4 34 5 28 41 -11
67 -36 145 -60 191 -14 25 -22 34 -19 20z"/>
<path d="M1894 2259 l-41 -10 -7 -61 c-11 -105 -10 -109 19 -96 19 8 39 8 81
-1 30 -7 57 -11 59 -9 2 1 6 40 10 84 l7 81 -28 7 c-16 4 -36 8 -44 10 -8 2
-33 0 -56 -5z"/>
<path d="M5491 2244 c0 -11 3 -14 6 -6 3 7 2 16 -1 19 -3 4 -6 -2 -5 -13z"/>
<path d="M6264 2250 c-18 -7 -20 -13 -13 -66 4 -33 8 -68 8 -79 1 -18 8 -20
86 -20 50 0 85 4 85 10 -1 45 -23 151 -33 157 -16 10 -106 9 -133 -2z"/>
<path d="M2760 2215 c-27 -81 -88 -118 -132 -78 -17 15 -18 15 -18 -13 0 -60
50 -72 97 -25 27 27 79 138 69 148 -2 2 -9 -12 -16 -32z"/>
<path d="M5506 2200 c11 -46 59 -114 87 -125 49 -17 77 16 61 73 l-7 27 -6
-25 c-6 -21 -13 -25 -41 -25 -27 0 -38 6 -55 31 -46 72 -46 72 -39 44z"/>
<path d="M2098 1993 c4 -48 1 -68 -12 -88 -20 -31 -49 -32 -64 -2 -10 20 -11
19 -11 -15 -1 -34 19 -68 39 -68 60 0 87 96 56 195 -13 40 -13 40 -8 -22z"/>
<path d="M1844 2016 c-27 -12 -31 -20 -42 -78 -18 -99 -24 -93 77 -94 l90 -1
5 36 c19 133 19 138 -6 145 -37 10 -91 6 -124 -8z"/>
<path d="M6306 2023 l-28 -5 6 -71 c11 -109 11 -110 59 -103 23 4 63 2 90 -3
26 -4 47 -5 47 -2 0 8 -18 116 -25 147 -8 37 -61 50 -149 37z"/>
<path d="M6156 1967 c-17 -97 35 -177 84 -132 21 19 28 65 10 65 -5 0 -10 -4
-10 -10 0 -17 -47 -11 -56 8 -4 9 -10 40 -14 67 l-6 50 -8 -48z"/>
<path d="M2602 1835 c-49 -55 -57 -141 -14 -160 12 -5 22 -19 22 -30 0 -31 28
-65 53 -65 30 0 44 11 56 43 14 36 14 80 1 72 -5 -3 -10 -14 -10 -25 0 -27
-28 -32 -50 -10 -16 16 -18 24 -8 50 11 34 4 50 -14 32 -18 -18 -36 -14 -49
10 -10 18 -8 24 10 39 12 10 25 19 30 21 14 4 25 58 13 58 -5 0 -24 -16 -40
-35z"/>
<path d="M5620 1849 c0 -11 14 -33 30 -47 17 -15 30 -34 30 -43 0 -21 -29 -34
-44 -19 -20 20 -28 10 -22 -27 4 -21 2 -44 -3 -51 -13 -20 -44 -10 -58 18
l-13 25 0 -27 c0 -33 17 -80 33 -90 38 -24 87 10 87 59 0 14 6 23 15 23 31 0
47 78 24 123 -14 27 -60 77 -71 77 -4 0 -8 -9 -8 -21z"/>
<path d="M2063 1226 c320 -313 678 -549 1032 -679 226 -83 396 -117 586 -117
51 0 104 -6 129 -15 70 -25 138 -20 189 14 47 32 61 32 61 1 0 -22 54 -70 79
-70 21 0 66 46 75 77 7 21 7 21 57 -10 54 -33 120 -40 177 -19 15 6 84 13 154
16 522 25 1121 324 1603 799 109 108 109 108 35 50 -262 -207 -420 -308 -675
-433 -396 -195 -676 -253 -991 -204 -85 14 -109 14 -134 4 -32 -13 -46 -45
-35 -79 3 -12 2 -21 -3 -21 -15 0 -39 33 -62 88 -38 88 -126 148 -125 85 0
-23 -4 -28 -25 -28 -21 0 -26 5 -28 33 -3 27 2 35 27 50 17 9 31 19 31 22 0 3
-19 25 -43 48 l-43 42 -49 -50 c-30 -30 -43 -50 -34 -50 20 0 59 -41 59 -62 0
-9 -7 -21 -16 -29 -21 -17 -50 1 -47 30 7 58 -75 -6 -119 -93 -16 -33 -37 -69
-45 -78 -20 -22 -36 -13 -21 11 18 29 2 67 -33 81 -26 11 -51 11 -153 -3 -323
-45 -575 9 -981 208 -216 107 -404 223 -566 351 -176 140 -180 142 -66 30z"/>
</g>
</svg>
